# xmcd
#
# Track frame offsets: 
#        150
#        10922
#        22455
#        31222
#        41340
#        52617
#        67415
#        86137
#        100282
#        103757
#        113230
#        127752
#        137707
#        152850
#        164595
#        179685
#
# Disc length: 2613 seconds
#
# Revision: 0
# Processed by: cddbd v1.5.2PL0 Copyright (c) Steve Scherf et al.
# Submitted via: ExactAudioCopy v1.0b1
#
DISCID=de0a3310
DTITLE=System Of A Down - Steal This Album
DYEAR=2002
DGENRE=Metal
TTITLE0=Chick N' Stu
TTITLE1=Innervision
TTITLE2=Bubbles
TTITLE3=Boom!
TTITLE4=Nüguns
TTITLE5=A.D.D. (American Dream Denial)
TTITLE6=Mr. Jack
TTITLE7=I-E-A-I-A-I-O
TTITLE8=36
TTITLE9=Pictures
TTITLE10=Highway Song
TTITLE11=Fuck The System
TTITLE12=Ego Brain
TTITLE13=Thetawaves
TTITLE14=Roulette
TTITLE15=Streamline
EXTD=
EXTT0=
EXTT1=
EXTT2=
EXTT3=
EXTT4=
EXTT5=
EXTT6=
EXTT7=
EXTT8=
EXTT9=
EXTT10=
EXTT11=
EXTT12=
EXTT13=
EXTT14=
EXTT15=
PLAYORDER=
